PathFileType	4	(X/Y/Z)	72_2_45_p0_0-799_filt_butterworth.trc
DataRate	CameraRate	NumFrames	NumMarkers	Units	OrigDataRate	OrigDataStartFrame	OrigNumFrames
60.0	60.0	7	27	m	60.0	699	799
Frame#	Time	RHip			RKnee			RAnkle			RBigToe			RSmallToe			RHeel			LHip			LKnee			LAnkle			LBigToe			LSmallToe			LHeel			Neck			Head			Nose			RShoulder			RElbow			RWrist			RThumb			RIndex			RPinky			LShoulder			LElbow			LWrist			LThumb			LIndex			LPinky			
		X1	Y1	Z1	X2	Y2	Z2	X3	Y3	Z3	X4	Y4	Z4	X5	Y5	Z5	X6	Y6	Z6	X7	Y7	Z7	X8	Y8	Z8	X9	Y9	Z9	X10	Y10	Z10	X11	Y11	Z11	X12	Y12	Z12	X13	Y13	Z13	X14	Y14	Z14	X15	Y15	Z15	X16	Y16	Z16	X17	Y17	Z17	X18	Y18	Z18	X19	Y19	Z19	X20	Y20	Z20	X21	Y21	Z21	X22	Y22	Z22	X23	Y23	Z23	X24	Y24	Z24	X25	Y25	Z25	X26	Y26	Z26	X27	Y27	Z27	
699	11.65	0.2607457126371829	0.4735604129775317	0.6522704608588067	0.25254076091645394	0.515032984647553	1.0694599182745717	0.22868551482792948	0.5929759282050091	1.48236047557912	0.18517832489353733	0.39572742512531484	1.4658061478080102	0.23618600795111372	0.4305321429920842	1.4755942980699333	0.20221895371139575	0.5947593264700828	1.5034676159279674	0.05482906832444896	0.5137786197369016	0.6510424527609513	0.04818047982797595	0.515479598381408	1.0413849864204727	0.04711091771209933	0.586603978752818	1.4383930902871052	-0.0034329508117890923	0.46056610791355845	1.4659141908427964	-0.04174892320759748	0.5100589012850092	1.4587249463135064	0.06080683785900585	0.6340107408606027	1.5090092203120904	0.17282494378888438	0.45187317312165964	0.05490478031702527	0.1718751898273413	0.4223896449488247	-0.22092975279522403	0.13707720815412439	0.36044913229358383	-0.07888162644672571	0.3519582417328976	0.4720337667591745	0.1450083253088923	0.3681938328207325	0.4383700126348153	0.40192902201167435	0.21014483140682744	0.31004228480827956	0.5777672970997116	0.12428745528419749	0.3189290041637619	0.6494031365404415	0.10456309474545224	0.32229667783285937	0.6756957643197128	0.10571258256207111	0.3329694837481566	0.6748695241350849	0.025297285479440476	0.5206531458377972	0.12803292066770833	-0.032058280324356814	0.44676037675737784	0.3887352495478851	0.07954266026917425	0.3742380800111241	0.5913014881667732	0.17798720743515006	0.3659440095450748	0.6481701424511349	0.17205416370945412	0.36362448748742787	0.6870075170742692	0.1305074590574088	0.3284689130810177	0.6916122785502019
700	11.666666666666666	0.2606533836836754	0.4735681466120651	0.6520314319157827	0.25296910516395005	0.5150461255196004	1.0698085330706038	0.22698001552541258	0.5896219197726643	1.4803270498922885	0.18394667132686343	0.3888852470548354	1.4615503355435668	0.23629721029082174	0.42891218604889325	1.474610112064703	0.2021942790772075	0.5947238041123737	1.5034091451087934	0.054922237125596816	0.5140973543470787	0.6511782160962645	0.04820500608586864	0.5155103412867744	1.0416184368585801	0.047468614276816194	0.5871756389838219	1.4404914193088514	-0.003370252294069236	0.4606501880646527	1.4660283376943175	-0.041728664341267055	0.510632636740315	1.4577305963434772	0.06220964758379007	0.6378238327182081	1.5112719642696715	0.17182386851574044	0.4519406969189227	0.054082303439182106	0.17157270436651711	0.4224161479992647	-0.2209404808576082	0.1366497629205524	0.3606814038814781	-0.07968379416302557	0.35204808188721576	0.4722380786649631	0.1450192756162076	0.3657513296635448	0.4356661591510482	0.40126038053799373	0.21009110099946163	0.30990990615482716	0.5782018383980139	0.12435894080352985	0.3193888438247933	0.6501038115554842	0.10762365334450745	0.32546169232605165	0.678085873128515	0.10420191953914781	0.33259941718016	0.6751754328760696	0.02792751313346093	0.5247515665504388	0.12869550582914907	-0.03203884673864804	0.44679890485528334	0.3887499897417527	0.0780468317143954	0.3740383914815321	0.5912154448413828	0.1775001979512564	0.3656315241636039	0.6479099308996256	0.17190634736342558	0.36337851516192304	0.6868664582965475	0.1291564952434157	0.32582941832541246	0.6907212065761872
701	11.683333333333334	0.26042778960211754	0.473571468237779	0.6509549196200755	0.2532360369832207	0.5150359495980206	1.070080868463762	0.22490855568220616	0.5854330892076902	1.4777984275546472	0.18381054461863736	0.383642992289209	1.4583864886078781	0.2366431800347385	0.42499272444657576	1.4722186454563855	0.2021897212601667	0.5947142390439389	1.5033840366626856	0.05480141789814537	0.5138607065223064	0.651093061378764	0.04822683877587778	0.5155307452347399	1.0417656741106047	0.047766381981287846	0.5875902611514146	1.4421118920816514	-0.00327425648961317	0.46087038012070475	1.4661505619841284	-0.04170512177861291	0.5108861950194964	1.4573974898494009	0.06284931979825707	0.6394646146631243	1.5133943539916184	0.17051116270780958	0.451987433495478	0.0529967785485856	0.1706044221783582	0.42227859143975766	-0.2209720072195587	0.13671931862018427	0.36071154305013636	-0.08095899581798989	0.35200528039414847	0.47218752719732354	0.1449927004022385	0.36413523024103706	0.4321490488581194	0.4003877268574376	0.21005299099522584	0.30962386511464757	0.5791232532408924	0.12453092992717649	0.319897232311403	0.6505702953786312	0.11048986788649784	0.32949301058827674	0.6805123092870186	0.10306727012501629	0.3322571365634663	0.6751754259302198	0.02955107201766337	0.5277543404018376	0.12916260066023472	-0.03161781482908462	0.4469935417519809	0.3887888027703482	0.07687717937076015	0.3749132075530685	0.5914789244764256	0.17643955055727706	0.3652230871061757	0.6479348011708365	0.17156142409158412	0.3630209202825679	0.6867359378941127	0.12738132144097783	0.322464377502719	0.6897388990187496
702	11.7	0.26013414310518046	0.47356717608120896	0.6492643358938435	0.2533213963331462	0.5150317103786215	1.0701877288032828	0.22339478621242928	0.5823109169465763	1.4759238485116226	0.18515245142691503	0.38247601901838724	1.4578201005637155	0.2371449494980094	0.4198810434597767	1.4691058319367694	0.20225992412071137	0.5948455575002533	1.5035692570307109	0.05427792770150681	0.5125890213801529	0.650633255847288	0.04824354136035813	0.5154746702574761	1.0417376959950273	0.0479632681033216	0.5877105900172355	1.44277288985799	-0.003293237987211184	0.4608291381565241	1.4660642532569557	-0.04169691604796619	0.5108483697158305	1.4573324126035943	0.06252370919573562	0.638493950308232	1.513740146764683	0.16951661454160466	0.4520060091959483	0.0521637327518433	0.16926711359920393	0.42202233793128974	-0.22101510547837572	0.1368197287186903	0.3606295284583876	-0.08226537115078937	0.3514286367517684	0.47109072218308956	0.14481275677269023	0.3639850879222928	0.4295071368769992	0.39971528126398465	0.21003834838491217	0.3092714065088455	0.5802430087337931	0.12458477866855906	0.3202224394973885	0.6504096746825542	0.1117189580241556	0.33264245915147045	0.6822023460246198	0.10265221077428058	0.33195352327066957	0.6751620153595731	0.030036251617627623	0.5289228730181134	0.12931966903643474	-0.030551153989412043	0.447374069434389	0.38886801703830554	0.07627840352221937	0.3780671473721439	0.5924625510416217	0.17503457268223577	0.36473278026461253	0.6481784535199288	0.17093289447152463	0.36301417143791914	0.6868045252869069	0.12601481207295895	0.31992013278574466	0.6892043235511474
703	11.716666666666669	0.2599005097622996	0.4735693406742437	0.647476340072776	0.253311655925998	0.5150328873691365	1.0701707611791802	0.22281490646737906	0.5810927818069226	1.4752030521613528	0.18720668263170884	0.38400596012789706	1.4589124575693373	0.23760215512779104	0.41598399086075494	1.466742726924063	0.20247312053669894	0.5952600880291663	1.504213501147765	0.05311020052709369	0.5096619922650832	0.6496328608203777	0.04826588489730434	0.5152497860494338	1.0415164754012893	0.04812092383901138	0.5876329279747781	1.4427962507103025	-0.0037696994306040607	0.45958168172076674	1.4653866817458039	-0.04170112833789942	0.510524038610171	1.4568183011968072	0.06166048440812177	0.636117173246631	1.5118234153734644	0.16912408658493372	0.45200605491221746	0.05182049494689299	0.16819680191252867	0.4217184128615509	-0.22104881573916432	0.13683460422291163	0.3605583553584016	-0.08311753228280971	0.3500355763035121	0.46835585859836437	0.1443963402251258	0.364525828739626	0.42846653980676924	0.3994313414337308	0.2100351926309897	0.30900633244795245	0.581036976566678	0.12388502686398777	0.32008417407736733	0.6489247300062313	0.11150764229114965	0.33403972630240736	0.6833101492576691	0.10280654588059575	0.33170286562305945	0.6752862872403612	0.029948478840709433	0.5289729671927494	0.12928516070255516	-0.029141400558839348	0.44785161459755407	0.3889535098826596	0.07608892495199361	0.38248618042472615	0.5938496004658754	0.17384305888886656	0.3640708435205292	0.6484058952907058	0.17003329679941334	0.3642433309236165	0.6873473021365186	0.12543921787059384	0.3188906877713033	0.689096035826663
704	11.733333333333333	0.25979078219665935	0.47358299451401453	0.6458068728088596	0.2532893222334043	0.5150274244994663	1.0701087196584294	0.2228153279262137	0.5810921549892136	1.475218777877995	0.1888309804109892	0.38566384811877547	1.4600252193405425	0.23789707723494313	0.4143860394770611	1.4657763288865717	0.20281009234058095	0.5959079775819249	1.505309662576624	0.051593859649760945	0.5058249809963147	0.6483718110628719	0.04829727862191003	0.5148829191509234	1.0411599006903929	0.048137086089223964	0.5875618432318296	1.4426840088654367	-0.004953922898508976	0.4564582965275207	1.464031166161495	-0.04170405760639883	0.5099152547570855	1.4554786583915504	0.06060935748303412	0.6332466125624103	1.508810333413655	0.1691195875930227	0.452013830000962	0.05179250957840094	0.16769112694688865	0.421434557502005	-0.22106712994938726	0.13680770059985223	0.3605379819809013	-0.08341325331691679	0.34822946133401733	0.46473429748818007	0.14384432443501774	0.3649197960206987	0.4284050028561177	0.399407981317827	0.21002572425935678	0.3088969705739475	0.5813056469471949	0.12211229405918995	0.31945021104239396	0.6461432285281905	0.110701993553316	0.3341978303452464	0.6841992771274149	0.10320143904566136	0.3315419990503989	0.6755243378888633	0.02978379380068931	0.5287793287919293	0.12919979700190268	-0.028068833012077472	0.4482198287015194	0.3889638284158854	0.07587307582147265	0.3858579970834466	0.5949156422488423	0.17314167864713803	0.36330208046399737	0.6482524053448624	0.1688256952977175	0.3672425730502767	0.6884906286219588	0.1253772299652783	0.31882830677428553	0.689173555622516
705	11.75	0.2597975276861844	0.47358518667381966	0.6445334650936188	0.25328660718504314	0.5150113631285497	1.0700266718964724	0.22293896385751857	0.5813814179471325	1.4754109786241634	0.18941996083396867	0.3861785157677781	1.4603737839335134	0.23791808650987184	0.4142749495756002	1.4656905549154318	0.20301554364459318	0.596246364548773	1.5062920580544896	0.050429993084845796	0.5028691090164886	0.64743697163928	0.04826227161685212	0.5148193485135344	1.041040845712296	0.047559482145996146	0.5877517214679828	1.4427475332115056	-0.006501368563498607	0.4523363521557013	1.4625794129214553	-0.04170404779357642	0.5092198902216609	1.4539447761786843	0.05974175368408098	0.6308686134542183	1.506453904453165	0.1692102824512142	0.4520458900324214	0.05183004714378986	0.16767396331550358	0.42145623439838986	-0.22107976510083607	0.13678337029104276	0.36054935986940734	-0.08338864298574349	0.3467792191868991	0.46192858968837386	0.14339413281588254	0.365066173766395	0.42850998003024876	0.3994625335413674	0.21000214690687805	0.30889317539560474	0.5812651066667839	0.12005746387287328	0.31867611276641794	0.643742204055851	0.10944964879714131	0.33393514222536735	0.684884617504283	0.1035563381357234	0.3314914636471234	0.675745259103288	0.029712822070927347	0.5286574986433207	0.12912310057941895	-0.027634904251774804	0.4483609712392834	0.38888118414548223	0.07533817805563416	0.3871555485121449	0.5953085322580447	0.17276990648723972	0.3627087348316019	0.6476803178819079	0.16720588207922474	0.37101454075227114	0.6898545110749765	0.12541829386839487	0.31900104605780144	0.6891681943600694
